<?xml version="1.0" encoding="UTF-8" standalone="no"?>
<!DOCTYPE svg PUBLIC "-//W3C//DTD SVG 1.1//EN"
 "http://www.w3.org/Graphics/SVG/1.1/DTD/svg11.dtd">
<!-- Generated by graphviz version 2.40.1 (20161225.0304)
 -->
<!-- Title: G Pages: 1 -->
<svg width="1651pt" height="638pt"
 viewBox="0.00 0.00 1651.22 638.00" xmlns="http://www.w3.org/2000/svg" xmlns:xlink="http://www.w3.org/1999/xlink">
<g id="graph0" class="graph" transform="scale(1 1) rotate(0) translate(4 634)">
<title>G</title>
<polygon fill="#ffffff" stroke="transparent" points="-4,4 -4,-634 1647.221,-634 1647.221,4 -4,4"/>
<!-- A0 -->
<g id="node1" class="node">
<title>A0</title>
<path fill="none" stroke="#000000" d="M910.182,-630C910.182,-630 633.518,-630 633.518,-630 627.518,-630 621.518,-624 621.518,-618 621.518,-618 621.518,-606 621.518,-606 621.518,-600 627.518,-594 633.518,-594 633.518,-594 910.182,-594 910.182,-594 916.182,-594 922.182,-600 922.182,-606 922.182,-606 922.182,-618 922.182,-618 922.182,-624 916.182,-630 910.182,-630"/>
<text text-anchor="middle" x="771.85" y="-609" font-family="Helvetica,sans-Serif" font-size="10.00" fill="#000000">static void ekgfx::window_manager_t::callback_close_window</text>
</g>
<!-- A1 -->
<g id="node2" class="node">
<title>A1</title>
<path fill="none" stroke="#000000" d="M1205.7826,-630C1205.7826,-630 1080.5064,-630 1080.5064,-630 1074.5064,-630 1068.5064,-624 1068.5064,-618 1068.5064,-618 1068.5064,-606 1068.5064,-606 1068.5064,-600 1074.5064,-594 1080.5064,-594 1080.5064,-594 1205.7826,-594 1205.7826,-594 1211.7826,-594 1217.7826,-600 1217.7826,-606 1217.7826,-606 1217.7826,-618 1217.7826,-618 1217.7826,-624 1211.7826,-630 1205.7826,-630"/>
<text text-anchor="middle" x="1143.1445" y="-609" font-family="Helvetica,sans-Serif" font-size="10.00" fill="#000000">void ekgfx::window_t::close</text>
</g>
<!-- A0&#45;&gt;A1 -->
<g id="edge1" class="edge">
<title>A0&#45;&gt;A1</title>
<path fill="none" stroke="#000000" d="M922.3344,-612C968.6631,-612 1018.0243,-612 1058.3007,-612"/>
<polygon fill="#000000" stroke="#000000" points="1068.3373,-612 1058.3374,-616.5001 1063.3373,-612 1058.3373,-612.0001 1058.3373,-612.0001 1058.3373,-612.0001 1063.3373,-612 1058.3373,-607.5001 1068.3373,-612 1068.3373,-612"/>
</g>
<!-- A2 -->
<g id="node3" class="node">
<title>A2</title>
<path fill="none" stroke="#000000" d="M294.5628,-630C294.5628,-630 101.8122,-630 101.8122,-630 95.8122,-630 89.8122,-624 89.8122,-618 89.8122,-618 89.8122,-606 89.8122,-606 89.8122,-600 95.8122,-594 101.8122,-594 101.8122,-594 294.5628,-594 294.5628,-594 300.5628,-594 306.5628,-600 306.5628,-606 306.5628,-606 306.5628,-618 306.5628,-618 306.5628,-624 300.5628,-630 294.5628,-630"/>
<text text-anchor="middle" x="198.1875" y="-609" font-family="Helvetica,sans-Serif" font-size="10.00" fill="#000000">ekgfx::window_manager_t::create_window</text>
</g>
<!-- A3 -->
<g id="node4" class="node">
<title>A3</title>
<path fill="none" stroke="#000000" d="M573.4635,-630C573.4635,-630 354.3455,-630 354.3455,-630 348.3455,-630 342.3455,-624 342.3455,-618 342.3455,-618 342.3455,-606 342.3455,-606 342.3455,-600 348.3455,-594 354.3455,-594 354.3455,-594 573.4635,-594 573.4635,-594 579.4635,-594 585.4635,-600 585.4635,-606 585.4635,-606 585.4635,-618 585.4635,-618 585.4635,-624 579.4635,-630 573.4635,-630"/>
<text text-anchor="middle" x="463.9045" y="-609" font-family="Helvetica,sans-Serif" font-size="10.00" fill="#000000">void ekgfx::window_manager_t::glfw_event_loop</text>
</g>
<!-- A2&#45;&gt;A3 -->
<g id="edge2" class="edge">
<title>A2&#45;&gt;A3</title>
<path fill="none" stroke="#000000" d="M306.648,-612C315.1057,-612 323.7001,-612 332.2875,-612"/>
<polygon fill="#000000" stroke="#000000" points="342.3566,-612 332.3566,-616.5001 337.3566,-612 332.3566,-612.0001 332.3566,-612.0001 332.3566,-612.0001 337.3566,-612 332.3565,-607.5001 342.3566,-612 342.3566,-612"/>
</g>
<!-- A3&#45;&gt;A0 -->
<g id="edge3" class="edge">
<title>A3&#45;&gt;A0</title>
<path fill="none" stroke="#000000" d="M585.6127,-612C594.0711,-612 602.6655,-612 611.2875,-612"/>
<polygon fill="#000000" stroke="#000000" points="621.4152,-612 611.4153,-616.5001 616.4152,-612 611.4152,-612.0001 611.4152,-612.0001 611.4152,-612.0001 616.4152,-612 611.4152,-607.5001 621.4152,-612 621.4152,-612"/>
</g>
<!-- A4 -->
<g id="node5" class="node">
<title>A4</title>
<path fill="none" stroke="#000000" d="M42,-576C42,-576 12,-576 12,-576 6,-576 0,-570 0,-564 0,-564 0,-552 0,-552 0,-546 6,-540 12,-540 12,-540 42,-540 42,-540 48,-540 54,-546 54,-552 54,-552 54,-564 54,-564 54,-570 48,-576 42,-576"/>
<text text-anchor="middle" x="27" y="-555" font-family="Helvetica,sans-Serif" font-size="10.00" fill="#000000">?</text>
</g>
<!-- A4&#45;&gt;A2 -->
<g id="edge4" class="edge">
<title>A4&#45;&gt;A2</title>
<path fill="none" stroke="#000000" d="M54.2285,-570.8012C65.1897,-575.6548 78.0456,-580.9756 90,-585 96.3483,-587.1371 102.957,-589.1898 109.6396,-591.1418"/>
<polygon fill="#000000" stroke="#000000" points="119.4618,-593.9278 108.6133,-595.5282 114.6515,-592.5634 109.8413,-591.199 109.8413,-591.199 109.8413,-591.199 114.6515,-592.5634 111.0693,-586.8698 119.4618,-593.9278 119.4618,-593.9278"/>
</g>
<!-- A5 -->
<g id="node6" class="node">
<title>A5</title>
<path fill="none" stroke="#000000" d="M249.6085,-576C249.6085,-576 146.7665,-576 146.7665,-576 140.7665,-576 134.7665,-570 134.7665,-564 134.7665,-564 134.7665,-552 134.7665,-552 134.7665,-546 140.7665,-540 146.7665,-540 146.7665,-540 249.6085,-540 249.6085,-540 255.6085,-540 261.6085,-546 261.6085,-552 261.6085,-552 261.6085,-564 261.6085,-564 261.6085,-570 255.6085,-576 249.6085,-576"/>
<text text-anchor="middle" x="198.1875" y="-555" font-family="Helvetica,sans-Serif" font-size="10.00" fill="#000000">ekgfx::window_t::open</text>
</g>
<!-- A4&#45;&gt;A5 -->
<g id="edge6" class="edge">
<title>A4&#45;&gt;A5</title>
<path fill="none" stroke="#000000" d="M54.1252,-558C73.1004,-558 99.4193,-558 124.3759,-558"/>
<polygon fill="#000000" stroke="#000000" points="134.5909,-558 124.591,-562.5001 129.5909,-558 124.5909,-558.0001 124.5909,-558.0001 124.5909,-558.0001 129.5909,-558 124.5909,-553.5001 134.5909,-558 134.5909,-558"/>
</g>
<!-- A9 -->
<g id="node10" class="node">
<title>A9</title>
<path fill="none" stroke="#000000" d="M217.6895,-522C217.6895,-522 178.6855,-522 178.6855,-522 172.6855,-522 166.6855,-516 166.6855,-510 166.6855,-510 166.6855,-498 166.6855,-498 166.6855,-492 172.6855,-486 178.6855,-486 178.6855,-486 217.6895,-486 217.6895,-486 223.6895,-486 229.6895,-492 229.6895,-498 229.6895,-498 229.6895,-510 229.6895,-510 229.6895,-516 223.6895,-522 217.6895,-522"/>
<text text-anchor="middle" x="198.1875" y="-501" font-family="Helvetica,sans-Serif" font-size="10.00" fill="#000000">int main</text>
</g>
<!-- A4&#45;&gt;A9 -->
<g id="edge11" class="edge">
<title>A4&#45;&gt;A9</title>
<path fill="none" stroke="#000000" d="M54.2285,-545.1988C65.1897,-540.3452 78.0456,-535.0244 90,-531 111.6594,-523.7084 136.3494,-517.4 156.6689,-512.7187"/>
<polygon fill="#000000" stroke="#000000" points="166.5579,-510.4884 157.793,-517.0783 161.6804,-511.5885 156.8029,-512.6886 156.8029,-512.6886 156.8029,-512.6886 161.6804,-511.5885 155.8128,-508.2988 166.5579,-510.4884 166.5579,-510.4884"/>
</g>
<!-- A6 -->
<g id="node7" class="node">
<title>A6</title>
<path fill="none" stroke="#000000" d="M542.1557,-576C542.1557,-576 385.6533,-576 385.6533,-576 379.6533,-576 373.6533,-570 373.6533,-564 373.6533,-564 373.6533,-552 373.6533,-552 373.6533,-546 379.6533,-540 385.6533,-540 385.6533,-540 542.1557,-540 542.1557,-540 548.1557,-540 554.1557,-546 554.1557,-552 554.1557,-552 554.1557,-564 554.1557,-564 554.1557,-570 548.1557,-576 542.1557,-576"/>
<text text-anchor="middle" x="463.9045" y="-555" font-family="Helvetica,sans-Serif" font-size="10.00" fill="#000000">void ekgfx::window_t::worker_loop</text>
</g>
<!-- A5&#45;&gt;A6 -->
<g id="edge5" class="edge">
<title>A5&#45;&gt;A6</title>
<path fill="none" stroke="#000000" d="M261.8333,-558C292.2969,-558 329.4961,-558 363.6354,-558"/>
<polygon fill="#000000" stroke="#000000" points="373.6465,-558 363.6466,-562.5001 368.6465,-558 363.6465,-558.0001 363.6465,-558.0001 363.6465,-558.0001 368.6465,-558 363.6465,-553.5001 373.6465,-558 373.6465,-558"/>
</g>
<!-- A7 -->
<g id="node8" class="node">
<title>A7</title>
<path fill="none" stroke="#000000" d="M852.6202,-522C852.6202,-522 691.0798,-522 691.0798,-522 685.0798,-522 679.0798,-516 679.0798,-510 679.0798,-510 679.0798,-498 679.0798,-498 679.0798,-492 685.0798,-486 691.0798,-486 691.0798,-486 852.6202,-486 852.6202,-486 858.6202,-486 864.6202,-492 864.6202,-498 864.6202,-498 864.6202,-510 864.6202,-510 864.6202,-516 858.6202,-522 852.6202,-522"/>
<text text-anchor="middle" x="771.85" y="-501" font-family="Helvetica,sans-Serif" font-size="10.00" fill="#000000">void ekgfx::app_vulkan_t::terminate</text>
</g>
<!-- A8 -->
<g id="node9" class="node">
<title>A8</title>
<path fill="none" stroke="#000000" d="M1263.3946,-576C1263.3946,-576 1022.8944,-576 1022.8944,-576 1016.8944,-576 1010.8944,-570 1010.8944,-564 1010.8944,-564 1010.8944,-552 1010.8944,-552 1010.8944,-546 1016.8944,-540 1022.8944,-540 1022.8944,-540 1263.3946,-540 1263.3946,-540 1269.3946,-540 1275.3946,-546 1275.3946,-552 1275.3946,-552 1275.3946,-564 1275.3946,-564 1275.3946,-570 1269.3946,-576 1263.3946,-576"/>
<text text-anchor="middle" x="1143.1445" y="-555" font-family="Helvetica,sans-Serif" font-size="10.00" fill="#000000">void ekgfx::app_vulkan_t::destroy_debug_messenger</text>
</g>
<!-- A7&#45;&gt;A8 -->
<g id="edge7" class="edge">
<title>A7&#45;&gt;A8</title>
<path fill="none" stroke="#000000" d="M864.5855,-517.4872C908.201,-523.8305 961.035,-531.5145 1008.9153,-538.4781"/>
<polygon fill="#000000" stroke="#000000" points="1019.0521,-539.9524 1008.5085,-542.9662 1014.1042,-539.2327 1009.1562,-538.513 1009.1562,-538.513 1009.1562,-538.513 1014.1042,-539.2327 1009.8039,-534.0599 1019.0521,-539.9524 1019.0521,-539.9524"/>
</g>
<!-- A17 -->
<g id="node18" class="node">
<title>A17</title>
<path fill="none" stroke="#000000" d="M1237.6291,-522C1237.6291,-522 1048.6599,-522 1048.6599,-522 1042.6599,-522 1036.6599,-516 1036.6599,-510 1036.6599,-510 1036.6599,-498 1036.6599,-498 1036.6599,-492 1042.6599,-486 1048.6599,-486 1048.6599,-486 1237.6291,-486 1237.6291,-486 1243.6291,-486 1249.6291,-492 1249.6291,-498 1249.6291,-498 1249.6291,-510 1249.6291,-510 1249.6291,-516 1243.6291,-522 1237.6291,-522"/>
<text text-anchor="middle" x="1143.1445" y="-501" font-family="Helvetica,sans-Serif" font-size="10.00" fill="#000000">void ekgfx::window_manager_t::terminate</text>
</g>
<!-- A7&#45;&gt;A17 -->
<g id="edge15" class="edge">
<title>A7&#45;&gt;A17</title>
<path fill="none" stroke="#000000" d="M864.5855,-504C913.6191,-504 974.3038,-504 1026.5025,-504"/>
<polygon fill="#000000" stroke="#000000" points="1036.8231,-504 1026.8232,-508.5001 1031.8231,-504 1026.8231,-504.0001 1026.8231,-504.0001 1026.8231,-504.0001 1031.8231,-504 1026.8231,-499.5001 1036.8231,-504 1036.8231,-504"/>
</g>
<!-- A10 -->
<g id="node11" class="node">
<title>A10</title>
<path fill="none" stroke="#000000" d="M542.8325,-522C542.8325,-522 384.9765,-522 384.9765,-522 378.9765,-522 372.9765,-516 372.9765,-510 372.9765,-510 372.9765,-498 372.9765,-498 372.9765,-492 378.9765,-486 384.9765,-486 384.9765,-486 542.8325,-486 542.8325,-486 548.8325,-486 554.8325,-492 554.8325,-498 554.8325,-498 554.8325,-510 554.8325,-510 554.8325,-516 548.8325,-522 542.8325,-522"/>
<text text-anchor="middle" x="463.9045" y="-501" font-family="Helvetica,sans-Serif" font-size="10.00" fill="#000000">void ekgfx::application_t::terminate</text>
</g>
<!-- A9&#45;&gt;A10 -->
<g id="edge8" class="edge">
<title>A9&#45;&gt;A10</title>
<path fill="none" stroke="#000000" d="M229.7122,-504C262.5038,-504 315.5724,-504 362.9071,-504"/>
<polygon fill="#000000" stroke="#000000" points="372.9114,-504 362.9114,-508.5001 367.9114,-504 362.9114,-504.0001 362.9114,-504.0001 362.9114,-504.0001 367.9114,-504 362.9113,-499.5001 372.9114,-504 372.9114,-504"/>
</g>
<!-- A22 -->
<g id="node23" class="node">
<title>A22</title>
<path fill="none" stroke="#000000" d="M557.2396,-360C557.2396,-360 370.5694,-360 370.5694,-360 364.5694,-360 358.5694,-354 358.5694,-348 358.5694,-348 358.5694,-336 358.5694,-336 358.5694,-330 364.5694,-324 370.5694,-324 370.5694,-324 557.2396,-324 557.2396,-324 563.2396,-324 569.2396,-330 569.2396,-336 569.2396,-336 569.2396,-348 569.2396,-348 569.2396,-354 563.2396,-360 557.2396,-360"/>
<text text-anchor="middle" x="463.9045" y="-339" font-family="Helvetica,sans-Serif" font-size="10.00" fill="#000000">void ekgfx::application_t::create_instance</text>
</g>
<!-- A9&#45;&gt;A22 -->
<g id="edge20" class="edge">
<title>A9&#45;&gt;A22</title>
<path fill="none" stroke="#000000" d="M227.8952,-485.8881C276.1585,-456.4633 371.5799,-398.2876 425.1261,-365.642"/>
<polygon fill="#000000" stroke="#000000" points="433.9816,-360.2431 427.7858,-369.2909 429.7125,-362.8459 425.4433,-365.4487 425.4433,-365.4487 425.4433,-365.4487 429.7125,-362.8459 423.1008,-361.6065 433.9816,-360.2431 433.9816,-360.2431"/>
</g>
<!-- A10&#45;&gt;A7 -->
<g id="edge13" class="edge">
<title>A10&#45;&gt;A7</title>
<path fill="none" stroke="#000000" d="M555.0484,-504C590.7944,-504 631.9936,-504 668.8133,-504"/>
<polygon fill="#000000" stroke="#000000" points="679.0741,-504 669.0741,-508.5001 674.0741,-504 669.0741,-504.0001 669.0741,-504.0001 669.0741,-504.0001 674.0741,-504 669.074,-499.5001 679.0741,-504 679.0741,-504"/>
</g>
<!-- A11 -->
<g id="node12" class="node">
<title>A11</title>
<path fill="none" stroke="#000000" d="M1255.2768,-468C1255.2768,-468 1031.0122,-468 1031.0122,-468 1025.0122,-468 1019.0122,-462 1019.0122,-456 1019.0122,-456 1019.0122,-444 1019.0122,-444 1019.0122,-438 1025.0122,-432 1031.0122,-432 1031.0122,-432 1255.2768,-432 1255.2768,-432 1261.2768,-432 1267.2768,-438 1267.2768,-444 1267.2768,-444 1267.2768,-456 1267.2768,-456 1267.2768,-462 1261.2768,-468 1255.2768,-468"/>
<text text-anchor="middle" x="1143.1445" y="-447" font-family="Helvetica,sans-Serif" font-size="10.00" fill="#000000">void ekgfx::app_vulkan_t::create_vulkan_instance</text>
</g>
<!-- A12 -->
<g id="node13" class="node">
<title>A12</title>
<path fill="none" stroke="#000000" d="M1631.3201,-495C1631.3201,-495 1375.9239,-495 1375.9239,-495 1369.9239,-495 1363.9239,-489 1363.9239,-483 1363.9239,-483 1363.9239,-471 1363.9239,-471 1363.9239,-465 1369.9239,-459 1375.9239,-459 1375.9239,-459 1631.3201,-459 1631.3201,-459 1637.3201,-459 1643.3201,-465 1643.3201,-471 1643.3201,-471 1643.3201,-483 1643.3201,-483 1643.3201,-489 1637.3201,-495 1631.3201,-495"/>
<text text-anchor="middle" x="1503.622" y="-474" font-family="Helvetica,sans-Serif" font-size="10.00" fill="#000000">static VkBool32 ekgfx::app_vulkan_t::debug_vk_callback</text>
</g>
<!-- A11&#45;&gt;A12 -->
<g id="edge9" class="edge">
<title>A11&#45;&gt;A12</title>
<path fill="none" stroke="#000000" d="M1267.4527,-459.3108C1295.2246,-461.3909 1324.9629,-463.6183 1353.6484,-465.7669"/>
<polygon fill="#000000" stroke="#000000" points="1363.7459,-466.5232 1353.4377,-470.2636 1358.7598,-466.1497 1353.7738,-465.7762 1353.7738,-465.7762 1353.7738,-465.7762 1358.7598,-466.1497 1354.11,-461.2888 1363.7459,-466.5232 1363.7459,-466.5232"/>
</g>
<!-- A13 -->
<g id="node14" class="node">
<title>A13</title>
<path fill="none" stroke="#000000" d="M867.0271,-279C867.0271,-279 676.6729,-279 676.6729,-279 670.6729,-279 664.6729,-273 664.6729,-267 664.6729,-267 664.6729,-255 664.6729,-255 664.6729,-249 670.6729,-243 676.6729,-243 676.6729,-243 867.0271,-243 867.0271,-243 873.0271,-243 879.0271,-249 879.0271,-255 879.0271,-255 879.0271,-267 879.0271,-267 879.0271,-273 873.0271,-279 867.0271,-279"/>
<text text-anchor="middle" x="771.85" y="-258" font-family="Helvetica,sans-Serif" font-size="10.00" fill="#000000">void ekgfx::app_vulkan_t::create_instance</text>
</g>
<!-- A13&#45;&gt;A11 -->
<g id="edge10" class="edge">
<title>A13&#45;&gt;A11</title>
<path fill="none" stroke="#000000" d="M786.2747,-279.0654C814.9427,-313.5493 882.8597,-388.3964 958.266,-423 974.186,-430.3056 991.6158,-435.7305 1009.2102,-439.7431"/>
<polygon fill="#000000" stroke="#000000" points="1018.9932,-441.8299 1008.2744,-444.1446 1014.1033,-440.7868 1009.2133,-439.7436 1009.2133,-439.7436 1009.2133,-439.7436 1014.1033,-440.7868 1010.1521,-435.3427 1018.9932,-441.8299 1018.9932,-441.8299"/>
</g>
<!-- A14 -->
<g id="node15" class="node">
<title>A14</title>
<path fill="none" stroke="#000000" d="M1315.2907,-414C1315.2907,-414 970.9983,-414 970.9983,-414 964.9983,-414 958.9983,-408 958.9983,-402 958.9983,-402 958.9983,-390 958.9983,-390 958.9983,-384 964.9983,-378 970.9983,-378 970.9983,-378 1315.2907,-378 1315.2907,-378 1321.2907,-378 1327.2907,-384 1327.2907,-390 1327.2907,-390 1327.2907,-402 1327.2907,-402 1327.2907,-408 1321.2907,-414 1315.2907,-414"/>
<text text-anchor="middle" x="1143.1445" y="-393" font-family="Helvetica,sans-Serif" font-size="10.00" fill="#000000">std::shared_ptr&lt;ekgfx::window_t&gt; ekgfx::window_manager_t::create_window</text>
</g>
<!-- A13&#45;&gt;A14 -->
<g id="edge25" class="edge">
<title>A13&#45;&gt;A14</title>
<path fill="none" stroke="#000000" d="M795.9991,-279.0792C830.1952,-303.691 895.5675,-347.1694 958.266,-369 965.0054,-371.3466 971.9518,-373.4892 979.02,-375.4457"/>
<polygon fill="#000000" stroke="#000000" points="988.7257,-377.9998 977.9097,-379.8066 983.8904,-376.7273 979.055,-375.4548 979.055,-375.4548 979.055,-375.4548 983.8904,-376.7273 980.2002,-371.103 988.7257,-377.9998 988.7257,-377.9998"/>
</g>
<!-- A16 -->
<g id="node17" class="node">
<title>A16</title>
<path fill="none" stroke="#000000" d="M1315.9016,-360C1315.9016,-360 970.3874,-360 970.3874,-360 964.3874,-360 958.3874,-354 958.3874,-348 958.3874,-348 958.3874,-336 958.3874,-336 958.3874,-330 964.3874,-324 970.3874,-324 970.3874,-324 1315.9016,-324 1315.9016,-324 1321.9016,-324 1327.9016,-330 1327.9016,-336 1327.9016,-336 1327.9016,-348 1327.9016,-348 1327.9016,-354 1321.9016,-360 1315.9016,-360"/>
<text text-anchor="middle" x="1143.1445" y="-339" font-family="Helvetica,sans-Serif" font-size="10.00" fill="#000000">const char** ekgfx::window_manager_t::get_glfw_required_extension_names</text>
</g>
<!-- A13&#45;&gt;A16 -->
<g id="edge14" class="edge">
<title>A13&#45;&gt;A16</title>
<path fill="none" stroke="#000000" d="M826.8104,-279.0722C863.6694,-290.6578 913.4819,-305.2912 958.266,-315 970.1477,-317.5758 982.5132,-319.9762 994.9661,-322.1972"/>
<polygon fill="#000000" stroke="#000000" points="1004.9642,-323.9399 994.34,-326.6559 1000.0385,-323.0813 995.1128,-322.2227 995.1128,-322.2227 995.1128,-322.2227 1000.0385,-323.0813 995.8855,-317.7895 1004.9642,-323.9399 1004.9642,-323.9399"/>
</g>
<!-- A18 -->
<g id="node19" class="node">
<title>A18</title>
<path fill="none" stroke="#000000" d="M1253.3866,-306C1253.3866,-306 1032.9024,-306 1032.9024,-306 1026.9024,-306 1020.9024,-300 1020.9024,-294 1020.9024,-294 1020.9024,-282 1020.9024,-282 1020.9024,-276 1026.9024,-270 1032.9024,-270 1032.9024,-270 1253.3866,-270 1253.3866,-270 1259.3866,-270 1265.3866,-276 1265.3866,-282 1265.3866,-282 1265.3866,-294 1265.3866,-294 1265.3866,-300 1259.3866,-306 1253.3866,-306"/>
<text text-anchor="middle" x="1143.1445" y="-285" font-family="Helvetica,sans-Serif" font-size="10.00" fill="#000000">void ekgfx::app_vulkan_t::enumerate_extensions</text>
</g>
<!-- A13&#45;&gt;A18 -->
<g id="edge16" class="edge">
<title>A13&#45;&gt;A18</title>
<path fill="none" stroke="#000000" d="M879.2438,-268.8095C920.2747,-271.7932 967.548,-275.2309 1010.6476,-278.365"/>
<polygon fill="#000000" stroke="#000000" points="1020.6383,-279.0915 1010.3383,-282.8543 1015.6515,-278.7288 1010.6647,-278.3662 1010.6647,-278.3662 1010.6647,-278.3662 1015.6515,-278.7288 1010.9911,-273.878 1020.6383,-279.0915 1020.6383,-279.0915"/>
</g>
<!-- A19 -->
<g id="node20" class="node">
<title>A19</title>
<path fill="none" stroke="#000000" d="M1244.5579,-252C1244.5579,-252 1041.7311,-252 1041.7311,-252 1035.7311,-252 1029.7311,-246 1029.7311,-240 1029.7311,-240 1029.7311,-228 1029.7311,-228 1029.7311,-222 1035.7311,-216 1041.7311,-216 1041.7311,-216 1244.5579,-216 1244.5579,-216 1250.5579,-216 1256.5579,-222 1256.5579,-228 1256.5579,-228 1256.5579,-240 1256.5579,-240 1256.5579,-246 1250.5579,-252 1244.5579,-252"/>
<text text-anchor="middle" x="1143.1445" y="-231" font-family="Helvetica,sans-Serif" font-size="10.00" fill="#000000">void ekgfx::app_vulkan_t::create_debug_info</text>
</g>
<!-- A13&#45;&gt;A19 -->
<g id="edge17" class="edge">
<title>A13&#45;&gt;A19</title>
<path fill="none" stroke="#000000" d="M879.2438,-253.1905C923.1487,-249.9978 974.2011,-246.2853 1019.6392,-242.9811"/>
<polygon fill="#000000" stroke="#000000" points="1029.8469,-242.2388 1020.1996,-247.4524 1024.86,-242.6015 1019.8732,-242.9642 1019.8732,-242.9642 1019.8732,-242.9642 1024.86,-242.6015 1019.5468,-238.4761 1029.8469,-242.2388 1029.8469,-242.2388"/>
</g>
<!-- A20 -->
<g id="node21" class="node">
<title>A20</title>
<path fill="none" stroke="#000000" d="M1260.8946,-198C1260.8946,-198 1025.3944,-198 1025.3944,-198 1019.3944,-198 1013.3944,-192 1013.3944,-186 1013.3944,-186 1013.3944,-174 1013.3944,-174 1013.3944,-168 1019.3944,-162 1025.3944,-162 1025.3944,-162 1260.8946,-162 1260.8946,-162 1266.8946,-162 1272.8946,-168 1272.8946,-174 1272.8946,-174 1272.8946,-186 1272.8946,-186 1272.8946,-192 1266.8946,-198 1260.8946,-198"/>
<text text-anchor="middle" x="1143.1445" y="-177" font-family="Helvetica,sans-Serif" font-size="10.00" fill="#000000">void ekgfx::app_vulkan_t::create_debug_messenger</text>
</g>
<!-- A13&#45;&gt;A20 -->
<g id="edge18" class="edge">
<title>A13&#45;&gt;A20</title>
<path fill="none" stroke="#000000" d="M826.8104,-242.9278C863.6694,-231.3422 913.4819,-216.7088 958.266,-207 972.6986,-203.8711 987.8451,-201.0012 1002.995,-198.3971"/>
<polygon fill="#000000" stroke="#000000" points="1012.9437,-196.7241 1003.8284,-202.8202 1008.0129,-197.5533 1003.0821,-198.3825 1003.0821,-198.3825 1003.0821,-198.3825 1008.0129,-197.5533 1002.3359,-193.9448 1012.9437,-196.7241 1012.9437,-196.7241"/>
</g>
<!-- A23 -->
<g id="node24" class="node">
<title>A23</title>
<path fill="none" stroke="#000000" d="M1249.5258,-144C1249.5258,-144 1036.7632,-144 1036.7632,-144 1030.7632,-144 1024.7632,-138 1024.7632,-132 1024.7632,-132 1024.7632,-120 1024.7632,-120 1024.7632,-114 1030.7632,-108 1036.7632,-108 1036.7632,-108 1249.5258,-108 1249.5258,-108 1255.5258,-108 1261.5258,-114 1261.5258,-120 1261.5258,-120 1261.5258,-132 1261.5258,-132 1261.5258,-138 1255.5258,-144 1249.5258,-144"/>
<text text-anchor="middle" x="1143.1445" y="-123" font-family="Helvetica,sans-Serif" font-size="10.00" fill="#000000">ekgfx::window_manager_t::window_manager_t</text>
</g>
<!-- A13&#45;&gt;A23 -->
<g id="edge22" class="edge">
<title>A13&#45;&gt;A23</title>
<path fill="none" stroke="#000000" d="M795.9991,-242.9208C830.1952,-218.309 895.5675,-174.8306 958.266,-153 976.1352,-146.7782 995.46,-141.99 1014.6492,-138.305"/>
<polygon fill="#000000" stroke="#000000" points="1024.6632,-136.4768 1015.634,-142.6997 1019.7444,-137.3749 1014.8257,-138.2729 1014.8257,-138.2729 1014.8257,-138.2729 1019.7444,-137.3749 1014.0175,-133.846 1024.6632,-136.4768 1024.6632,-136.4768"/>
</g>
<!-- A24 -->
<g id="node25" class="node">
<title>A24</title>
<path fill="none" stroke="#000000" d="M1242.7598,-90C1242.7598,-90 1043.5292,-90 1043.5292,-90 1037.5292,-90 1031.5292,-84 1031.5292,-78 1031.5292,-78 1031.5292,-66 1031.5292,-66 1031.5292,-60 1037.5292,-54 1043.5292,-54 1043.5292,-54 1242.7598,-54 1242.7598,-54 1248.7598,-54 1254.7598,-60 1254.7598,-66 1254.7598,-66 1254.7598,-78 1254.7598,-78 1254.7598,-84 1248.7598,-90 1242.7598,-90"/>
<text text-anchor="middle" x="1143.1445" y="-69" font-family="Helvetica,sans-Serif" font-size="10.00" fill="#000000">void ekgfx::app_vulkan_t::enumerate_layers</text>
</g>
<!-- A13&#45;&gt;A24 -->
<g id="edge23" class="edge">
<title>A13&#45;&gt;A24</title>
<path fill="none" stroke="#000000" d="M786.2747,-242.9346C814.9427,-208.4507 882.8597,-133.6036 958.266,-99 977.824,-90.025 999.6607,-83.8884 1021.2817,-79.7218"/>
<polygon fill="#000000" stroke="#000000" points="1031.1916,-77.9429 1022.144,-84.139 1026.2702,-78.8264 1021.3489,-79.7098 1021.3489,-79.7098 1021.3489,-79.7098 1026.2702,-78.8264 1020.5538,-75.2806 1031.1916,-77.9429 1031.1916,-77.9429"/>
</g>
<!-- A26 -->
<g id="node27" class="node">
<title>A26</title>
<path fill="none" stroke="#000000" d="M1306.5225,-36C1306.5225,-36 979.7665,-36 979.7665,-36 973.7665,-36 967.7665,-30 967.7665,-24 967.7665,-24 967.7665,-12 967.7665,-12 967.7665,-6 973.7665,0 979.7665,0 979.7665,0 1306.5225,0 1306.5225,0 1312.5225,0 1318.5225,-6 1318.5225,-12 1318.5225,-12 1318.5225,-24 1318.5225,-24 1318.5225,-30 1312.5225,-36 1306.5225,-36"/>
<text text-anchor="middle" x="1143.1445" y="-15" font-family="Helvetica,sans-Serif" font-size="10.00" fill="#000000">uint32_t ekgfx::window_manager_t::get_glfw_required_extensions_count</text>
</g>
<!-- A13&#45;&gt;A26 -->
<g id="edge26" class="edge">
<title>A13&#45;&gt;A26</title>
<path fill="none" stroke="#000000" d="M781.3502,-242.9647C804.8697,-200.3224 870.3294,-93.2571 958.266,-45 961.4185,-43.27 964.6447,-41.6392 967.9322,-40.1022"/>
<polygon fill="#000000" stroke="#000000" points="977.3494,-36.0149 969.9678,-44.1244 972.7628,-38.0057 968.1761,-39.9964 968.1761,-39.9964 968.1761,-39.9964 972.7628,-38.0057 966.3845,-35.8685 977.3494,-36.0149 977.3494,-36.0149"/>
</g>
<!-- A15 -->
<g id="node16" class="node">
<title>A15</title>
<path fill="none" stroke="#000000" d="M1565.659,-441C1565.659,-441 1441.585,-441 1441.585,-441 1435.585,-441 1429.585,-435 1429.585,-429 1429.585,-429 1429.585,-417 1429.585,-417 1429.585,-411 1435.585,-405 1441.585,-405 1441.585,-405 1565.659,-405 1565.659,-405 1571.659,-405 1577.659,-411 1577.659,-417 1577.659,-417 1577.659,-429 1577.659,-429 1577.659,-435 1571.659,-441 1565.659,-441"/>
<text text-anchor="middle" x="1503.622" y="-420" font-family="Helvetica,sans-Serif" font-size="10.00" fill="#000000">void ekgfx::window_t::open</text>
</g>
<!-- A14&#45;&gt;A15 -->
<g id="edge12" class="edge">
<title>A14&#45;&gt;A15</title>
<path fill="none" stroke="#000000" d="M1327.3433,-409.7966C1359.6199,-412.2141 1391.727,-414.619 1419.5219,-416.7008"/>
<polygon fill="#000000" stroke="#000000" points="1429.5593,-417.4527 1419.2511,-421.1931 1424.5733,-417.0792 1419.5872,-416.7056 1419.5872,-416.7056 1419.5872,-416.7056 1424.5733,-417.0792 1419.9234,-412.2182 1429.5593,-417.4527 1429.5593,-417.4527"/>
</g>
<!-- A21 -->
<g id="node22" class="node">
<title>A21</title>
<path fill="none" stroke="#000000" d="M1590.049,-387C1590.049,-387 1417.195,-387 1417.195,-387 1411.195,-387 1405.195,-381 1405.195,-375 1405.195,-375 1405.195,-363 1405.195,-363 1405.195,-357 1411.195,-351 1417.195,-351 1417.195,-351 1590.049,-351 1590.049,-351 1596.049,-351 1602.049,-357 1602.049,-363 1602.049,-363 1602.049,-375 1602.049,-375 1602.049,-381 1596.049,-387 1590.049,-387"/>
<text text-anchor="middle" x="1503.622" y="-366" font-family="Helvetica,sans-Serif" font-size="10.00" fill="#000000">int ekgfx::window_manager_t::random</text>
</g>
<!-- A14&#45;&gt;A21 -->
<g id="edge19" class="edge">
<title>A14&#45;&gt;A21</title>
<path fill="none" stroke="#000000" d="M1327.3433,-382.2034C1350.3959,-380.4767 1373.362,-378.7566 1394.7323,-377.1559"/>
<polygon fill="#000000" stroke="#000000" points="1404.7596,-376.4049 1395.1237,-381.6393 1399.7736,-376.7784 1394.7875,-377.1519 1394.7875,-377.1519 1394.7875,-377.1519 1399.7736,-376.7784 1394.4514,-372.6644 1404.7596,-376.4049 1404.7596,-376.4049"/>
</g>
<!-- A25 -->
<g id="node26" class="node">
<title>A25</title>
<path fill="none" stroke="#000000" d="M1564.9794,-333C1564.9794,-333 1442.2646,-333 1442.2646,-333 1436.2646,-333 1430.2646,-327 1430.2646,-321 1430.2646,-321 1430.2646,-309 1430.2646,-309 1430.2646,-303 1436.2646,-297 1442.2646,-297 1442.2646,-297 1564.9794,-297 1564.9794,-297 1570.9794,-297 1576.9794,-303 1576.9794,-309 1576.9794,-309 1576.9794,-321 1576.9794,-321 1576.9794,-327 1570.9794,-333 1564.9794,-333"/>
<text text-anchor="middle" x="1503.622" y="-312" font-family="Helvetica,sans-Serif" font-size="10.00" fill="#000000">ekgfx::window_t::window_t</text>
</g>
<!-- A14&#45;&gt;A25 -->
<g id="edge24" class="edge">
<title>A14&#45;&gt;A25</title>
<path fill="none" stroke="#000000" d="M1302.8758,-377.9136C1311.4998,-375.3191 1319.9368,-372.3642 1328.023,-369 1346.4886,-361.3175 1345.7391,-350.1054 1364.023,-342 1381.6068,-334.2049 1401.419,-328.6537 1420.4743,-324.7026"/>
<polygon fill="#000000" stroke="#000000" points="1430.3542,-322.7789 1421.3986,-329.1072 1425.4463,-323.7345 1420.5385,-324.6902 1420.5385,-324.6902 1420.5385,-324.6902 1425.4463,-323.7345 1419.6784,-320.2731 1430.3542,-322.7789 1430.3542,-322.7789"/>
</g>
<!-- A22&#45;&gt;A13 -->
<g id="edge21" class="edge">
<title>A22&#45;&gt;A13</title>
<path fill="none" stroke="#000000" d="M532.6302,-323.9228C580.325,-311.3775 643.9551,-294.6406 693.6006,-281.5822"/>
<polygon fill="#000000" stroke="#000000" points="703.3344,-279.0219 694.8081,-285.9178 698.4989,-280.2938 693.6633,-281.5658 693.6633,-281.5658 693.6633,-281.5658 698.4989,-280.2938 692.5186,-277.2138 703.3344,-279.0219 703.3344,-279.0219"/>
</g>
</g>
</svg>
